Coordinates
version=1
nRows=43
nColumns=12
inDegrees=yes

Units are S.I. units (second, meters, Newtons, ...)
Angles are in degrees

endheader
time	SC_y	SC_z	SC_x	AC_y	AC_z	AC_x	GH_y	GH_z	GH_yy	EL_x	PS_y
       0.0              -38.48          15.02           35.7          39.15          8.845          1.014         -92.89          15.43          157.4          113.4          82.07
   0.02259              -38.48          15.02           35.7          39.15          8.845          1.014         -92.87          15.44          157.4          113.3          82.07
   0.04518              -38.48          15.03           35.7          39.15          8.845          1.013         -92.84          15.44          157.3          113.3          82.07
   0.06776              -38.48          15.03           35.7          39.16          8.845          1.013         -92.81          15.45          157.3          113.3          82.08
   0.09035              -38.48          15.04           35.7          39.16          8.845          1.013         -92.77          15.45          157.3          113.3          82.08
    0.1129              -38.48          15.04           35.7          39.16          8.845          1.012         -92.74          15.46          157.2          113.3          82.08
    0.1355              -38.48          15.04           35.7          39.17          8.845          1.012          -92.7          15.46          157.2          113.3          82.08
    0.1581              -38.48          15.05           35.7          39.17          8.845          1.011         -92.66          15.47          157.1          113.3          82.08
    0.1807              -38.48          15.06           35.7          39.17          8.845          1.011         -92.62          15.47          157.0          113.3          82.09
    0.2033              -38.48          15.06           35.7          39.18          8.845           1.01         -92.58          15.48          157.0          113.3          82.09
    0.2259              -38.48          15.07           35.7          39.18          8.845           1.01         -92.53          15.49          156.9          113.3          82.09
    0.2485              -38.48          15.07           35.7          39.19          8.845          1.009         -92.47          15.49          156.8          113.3           82.1
    0.2711              -38.48          15.08           35.7           39.2          8.845          1.009         -92.42           15.5          156.8          113.3           82.1
    0.2936              -38.48          15.09           35.7           39.2          8.845          1.008         -92.36          15.51          156.7          113.3           82.1
    0.3162              -38.47           15.1           35.7          39.21          8.845          1.007         -92.29          15.52          156.6          113.3          82.11
    0.3388              -38.47          15.11           35.7          39.21          8.844          1.007         -92.22          15.53          156.5          113.3          82.11
    0.3614              -38.47          15.12           35.7          39.22          8.844          1.006         -92.14          15.54          156.4          113.3          82.12
     0.384              -38.47          15.13           35.7          39.23          8.844          1.005         -92.06          15.56          156.3          113.3          82.12
    0.4066              -38.47          15.14           35.7          39.24          8.844          1.004         -91.96          15.57          156.2          113.2          82.13
    0.4292              -38.47          15.15           35.7          39.25          8.844          1.003         -91.86          15.59          156.0          113.2          82.13
    0.4518              -38.47          15.17           35.7          39.26          8.844          1.002         -91.75           15.6          155.9          113.2          82.14
    0.4744              -38.47          15.18           35.7          39.27          8.844            1.0         -91.63          15.62          155.7          113.2          82.15
    0.4969              -38.46           15.2           35.7          39.29          8.844          0.999         -91.49          15.64          155.5          113.2          82.15
    0.5195              -38.46          15.22           35.7           39.3          8.844         0.9974         -91.34          15.66          155.3          113.2          82.16
    0.5421              -38.46          15.24           35.7          39.32          8.844         0.9957         -91.17          15.69          155.1          113.2          82.17
    0.5647              -38.46          15.26           35.7          39.34          8.844         0.9937         -90.99          15.71          154.9          113.1          82.18
    0.5873              -38.45          15.29           35.7          39.36          8.843         0.9915         -90.78          15.74          154.6          113.1           82.2
    0.6099              -38.45          15.32           35.7          39.38          8.843          0.989         -90.54          15.78          154.3          113.1          82.21
    0.6325              -38.45          15.36           35.7          39.41          8.843         0.9862         -90.28          15.82          153.9          113.1          82.23
    0.6551              -38.44          15.39          35.69          39.44          8.843          0.983         -89.98          15.86          153.5          113.0          82.24
    0.6776              -38.44          15.44          35.69          39.47          8.843         0.9794         -89.63          15.91          153.0          113.0          82.26
    0.7002              -38.43          15.49          35.69          39.51          8.842         0.9752         -89.24          15.97          152.5          112.9          82.29
    0.7228              -38.43          15.55          35.69          39.56          8.842         0.9704         -88.78          16.04          151.9          112.9          82.32
    0.7454              -38.42          15.61          35.69          39.61          8.842         0.9648         -88.25          16.12          151.2          112.8          82.35
     0.768              -38.41          15.69          35.69          39.67          8.841         0.9583         -87.63          16.21          150.3          112.8          82.38
    0.7906               -38.4          15.79          35.69          39.75          8.841         0.9505          -86.9          16.32          149.4          112.7          82.43
    0.8132              -38.39           15.9          35.69          39.83           8.84         0.9414         -86.03          16.44          148.2          112.6          82.48
    0.8358              -38.37          16.03          35.69          39.94          8.839         0.9304         -84.99           16.6          146.8          112.5          82.54
    0.8583              -38.36          16.19          35.69          40.06          8.838         0.9171         -83.73          16.78          145.1          112.3          82.62
    0.8809              -38.34          16.39          35.69          40.22          8.837         0.9008          -82.2          17.01          143.0          112.1          82.71
    0.9035              -38.31          16.63          35.69          40.41          8.836         0.8808          -80.3          17.29          140.5          111.9          82.82
    0.9261              -38.28          16.93          35.68          40.64          8.834         0.8557         -77.93          17.64          137.3          111.7          82.96
    0.9487              -38.24          17.32          35.68          40.94          8.832         0.8242         -74.95          18.08          133.3          111.3          83.14
